<svg xmlns="http://www.w3.org/2000/svg" viewBox="0 0 74.29 86.98"><defs><style>.cls-1{fill:#fee8cc;}.cls-2{fill:#a48a7b;}.cls-3{fill:#5da6dc;}.cls-4{fill:#594394;}.cls-5{fill:#f9b233;}.cls-10,.cls-12,.cls-6{fill:none;stroke-miterlimit:10;}.cls-12,.cls-6{stroke:#fff;stroke-width:3px;}.cls-7{fill:#1d1d1b;}.cls-8{fill:#ed6e83;}.cls-9{fill:#cbbca0;}.cls-10{stroke:#1d1d1b;}.cls-11{fill:#f29699;}.cls-12{opacity:0.5;}.cls-13{fill:#fff;}.cls-14{fill:#fbdeed;}</style></defs><title>Asset 13</title><g id="Layer_2" data-name="Layer 2"><g id="Layer_1-2" data-name="Layer 1"><rect class="cls-1" x="11.6" y="45.29" width="5.87" height="5.87" rx="2.65"/><rect class="cls-2" x="12.62" y="46.2" width="4.31" height="4.31" rx="1.95" transform="translate(-30.65 70.55) rotate(-99.05)"/><rect class="cls-1" x="64.95" y="45.42" width="5.87" height="5.87" rx="2.65" transform="translate(135.76 96.71) rotate(-180)"/><rect class="cls-2" x="65.48" y="46.33" width="4.31" height="4.31" rx="1.95" transform="translate(9.12 107.65) rotate(-80.95)"/><path class="cls-3" d="M12.16,87h8.15V80A28.84,28.84,0,0,0,12.16,87Z"/><path class="cls-3" d="M41.14,74.57a42.53,42.53,0,0,0-16.8,3.35V87H57.88V77.9A42.4,42.4,0,0,0,41.14,74.57Z"/><path class="cls-3" d="M61.91,79.93v7h8.21A28.79,28.79,0,0,0,61.91,79.93Z"/><path class="cls-4" d="M20.31,80v7h4V77.92A34.59,34.59,0,0,0,20.31,80Z"/><path class="cls-4" d="M57.88,77.9V87h4v-7A33.73,33.73,0,0,0,57.88,77.9Z"/><ellipse class="cls-1" cx="41.14" cy="42.1" rx="26.18" ry="36.38"/><path class="cls-5" d="M41.14,5.72C24.83,5.72,11.21,19.62,8,38.12H74.26C71.07,19.62,57.46,5.72,41.14,5.72Z"/><path class="cls-6" d="M66.3,32.75C66.1,30.14,65,24,58.8,17.46c-5.19-5.49-13.07-6.25-15-6.38"/><path class="cls-7" d="M29.57,50.73c3.22,0,3.23-5,0-5s-3.22,5,0,5Z"/><path class="cls-7" d="M53.08,51c3.22,0,3.22-5,0-5s-3.22,5,0,5Z"/><path d="M41.14,69.78A3.57,3.57,0,0,1,44,71.41a5.82,5.82,0,0,0,2.29-4.23H36a5.79,5.79,0,0,0,2.29,4.23A3.57,3.57,0,0,1,41.14,69.78Z"/><path class="cls-8" d="M44,71.41a3.32,3.32,0,0,0-5.71,0,4.77,4.77,0,0,0,2.85,1A4.82,4.82,0,0,0,44,71.41Z"/><path class="cls-9" d="M38.08,60.33a.63.63,0,0,0,0-1.25.63.63,0,0,0,0,1.25Z"/><path class="cls-9" d="M43.75,60.33a.63.63,0,0,0,0-1.25.63.63,0,0,0,0,1.25Z"/><path class="cls-10" d="M32,43.16a4.52,4.52,0,0,0-3.72-1,4.43,4.43,0,0,0-2.75,1.94"/><path class="cls-10" d="M50.47,43.34a4.53,4.53,0,0,1,3.72-1,4.44,4.44,0,0,1,2.75,1.94"/><rect class="cls-4" x="24.34" y="83.47" width="33.54" height="3.47"/><path class="cls-11" d="M19.84,19.84H9.92a9.92,9.92,0,1,1,9.92-9.92Z"/><path class="cls-12" d="M3,12.37A8,8,0,0,1,4.54,6C7.27,2.6,11.66,3.2,11.85,3.23"/><path class="cls-13" d="M21.33,26.5c3.22,0,3.22-5,0-5s-3.22,5,0,5Z"/><circle class="cls-5" cx="25.55" cy="34.5" r="6.65"/><circle class="cls-5" cx="46.29" cy="34.5" r="6.65"/><circle class="cls-5" cx="56.94" cy="34.5" r="6.65"/><circle class="cls-5" cx="67.64" cy="38.12" r="6.65"/><circle class="cls-5" cx="37.9" cy="34.5" r="6.65"/><circle class="cls-5" cx="14.78" cy="38.12" r="6.65"/><path class="cls-14" d="M26.68,62.6c3.22,0,3.22-5,0-5s-3.22,5,0,5Z"/><path class="cls-14" d="M56.25,62.6c3.22,0,3.22-5,0-5s-3.22,5,0,5Z"/></g></g></svg>