<svg xmlns="http://www.w3.org/2000/svg" viewBox="0 0 118.02 136.28"><defs><style>.cls-1,.cls-14{fill:#fff;}.cls-1{stroke:#ffed00;stroke-width:2px;}.cls-1,.cls-11,.cls-13,.cls-7{stroke-miterlimit:10;}.cls-2{fill:#fee8cc;}.cls-3{fill:#a48a7b;}.cls-4{fill:#5da6dc;}.cls-5{fill:#594394;}.cls-6{fill:#f9b233;}.cls-11,.cls-13,.cls-7{fill:none;}.cls-13,.cls-7{stroke:#fff;stroke-width:3px;}.cls-8{fill:#1d1d1b;}.cls-9{fill:#ed6e83;}.cls-10{fill:#cbbca0;}.cls-11{stroke:#1d1d1b;}.cls-12{fill:#f29699;}.cls-13{opacity:0.5;}.cls-15{fill:#fbdeed;}</style></defs><title>Asset 12</title><g id="Layer_2" data-name="Layer 2"><g id="Layer_1-2" data-name="Layer 1"><polygon class="cls-1" points="117.02 101.63 117.02 34.65 59.01 1.16 1 34.65 1 101.63 59.01 135.13 117.02 101.63"/><polygon class="cls-1" points="114.61 100.24 114.61 36.04 59.01 3.94 3.41 36.04 3.41 100.24 59.01 132.35 114.61 100.24"/><rect class="cls-2" x="29.53" y="72.12" width="5.87" height="5.87" rx="2.65"/><rect class="cls-3" x="30.56" y="73.02" width="4.31" height="4.31" rx="1.95" transform="translate(-36.39 119.31) rotate(-99.05)"/><rect class="cls-2" x="82.88" y="72.25" width="5.87" height="5.87" rx="2.65" transform="translate(171.63 150.36) rotate(-180)"/><rect class="cls-3" x="83.42" y="73.15" width="4.31" height="4.31" rx="1.95" transform="translate(-2.26 147.97) rotate(-80.95)"/><path class="cls-4" d="M30.09,113.81h8.16v-7A28.77,28.77,0,0,0,30.09,113.81Z"/><path class="cls-4" d="M59.08,101.39a42.49,42.49,0,0,0-16.8,3.36v9.06H75.82v-9.09A42.65,42.65,0,0,0,59.08,101.39Z"/><path class="cls-4" d="M79.85,106.76v7h8.21A28.93,28.93,0,0,0,79.85,106.76Z"/><path class="cls-5" d="M38.25,106.79v7h4v-9.06A35.33,35.33,0,0,0,38.25,106.79Z"/><path class="cls-5" d="M75.82,104.72v9.09h4v-7A37.07,37.07,0,0,0,75.82,104.72Z"/><ellipse class="cls-2" cx="59.08" cy="68.93" rx="26.18" ry="36.38"/><path class="cls-6" d="M59.08,32.54c-16.32,0-29.94,13.91-33.12,32.4H92.19C89,46.45,75.39,32.54,59.08,32.54Z"/><path class="cls-7" d="M84.24,59.58c-.2-2.61-1.32-8.77-7.51-15.3-5.19-5.48-13.06-6.24-15-6.37"/><path class="cls-8" d="M47.51,77.55c3.22,0,3.22-5,0-5s-3.22,5,0,5Z"/><path class="cls-8" d="M71,77.81c3.22,0,3.22-5,0-5s-3.22,5,0,5Z"/><path d="M59.08,96.6a3.55,3.55,0,0,1,2.85,1.64A5.86,5.86,0,0,0,64.22,94H53.93a5.86,5.86,0,0,0,2.29,4.23A3.55,3.55,0,0,1,59.08,96.6Z"/><path class="cls-9" d="M61.93,98.24a3.31,3.31,0,0,0-5.71,0,4.73,4.73,0,0,0,5.71,0Z"/><path class="cls-10" d="M56,87.15a.63.63,0,0,0,0-1.25.63.63,0,0,0,0,1.25Z"/><path class="cls-10" d="M61.69,87.15a.63.63,0,0,0,0-1.25.63.63,0,0,0,0,1.25Z"/><path class="cls-11" d="M50,70a4.5,4.5,0,0,0-3.72-1A4.37,4.37,0,0,0,43.49,71"/><path class="cls-11" d="M68.4,70.17a4.53,4.53,0,0,1,3.72-1,4.37,4.37,0,0,1,2.75,1.94"/><rect class="cls-5" x="42.28" y="110.3" width="33.54" height="3.47"/><path class="cls-12" d="M37.77,46.67H27.85a9.92,9.92,0,1,1,9.92-9.92Z"/><path class="cls-13" d="M21,39.2a8,8,0,0,1,1.53-6.4c2.72-3.38,7.12-2.77,7.31-2.74"/><path class="cls-14" d="M39.27,53.32c3.21,0,3.22-5,0-5s-3.23,5,0,5Z"/><circle class="cls-6" cx="43.49" cy="61.32" r="6.65"/><circle class="cls-6" cx="64.22" cy="61.32" r="6.65"/><circle class="cls-6" cx="74.87" cy="61.32" r="6.65"/><circle class="cls-6" cx="85.57" cy="64.94" r="6.65"/><circle class="cls-6" cx="55.83" cy="61.32" r="6.65"/><circle class="cls-6" cx="32.71" cy="64.94" r="6.65"/><path class="cls-15" d="M44.61,89.43c3.22,0,3.22-5,0-5s-3.22,5,0,5Z"/><path class="cls-15" d="M74.18,89.43c3.22,0,3.23-5,0-5s-3.22,5,0,5Z"/></g></g></svg>