<svg xmlns="http://www.w3.org/2000/svg" viewBox="0 0 69.35 78.53"><defs><style>.cls-1{fill:#f9b233;}.cls-2{fill:#fee8cc;}.cls-3{fill:#a48a7b;}.cls-4{fill:#f6b6c0;}.cls-5{fill:#ee759c;}.cls-10,.cls-12,.cls-6{fill:none;stroke-miterlimit:10;}.cls-12,.cls-6{stroke:#fff;stroke-width:3px;}.cls-7{fill:#1d1d1b;}.cls-8{fill:#ed6e83;}.cls-9{fill:#cbbca0;}.cls-10{stroke:#1d1d1b;}.cls-11{fill:#f29699;}.cls-12{opacity:0.5;}.cls-13{fill:#fff;}</style></defs><title>Asset 7</title><g id="Layer_2" data-name="Layer 2"><g id="Layer_1-2" data-name="Layer 1"><rect class="cls-1" x="9.55" y="34.41" width="59.8" height="44.11"/><rect class="cls-2" x="12.78" y="40.89" width="5.3" height="5.3" rx="2.65"/><rect class="cls-3" x="13.7" y="41.71" width="3.89" height="3.89" rx="1.95" transform="translate(-25 65.97) rotate(-99.05)"/><rect class="cls-2" x="60.94" y="41.01" width="5.3" height="5.3" rx="2.65" transform="translate(127.18 87.31) rotate(180)"/><rect class="cls-3" x="61.42" y="41.82" width="3.89" height="3.89" rx="1.95" transform="translate(10.18 99.47) rotate(-80.95)"/><path class="cls-4" d="M13.28,78.53h7.36V72.2A26.06,26.06,0,0,0,13.28,78.53Z"/><path class="cls-4" d="M39.45,67.32a38.48,38.48,0,0,0-15.17,3v8.18H54.56v-8.2A38.35,38.35,0,0,0,39.45,67.32Z"/><path class="cls-4" d="M58.2,72.16v6.37h7.41A26,26,0,0,0,58.2,72.16Z"/><path class="cls-5" d="M20.64,72.2v6.33h3.64V70.35A31.82,31.82,0,0,0,20.64,72.2Z"/><path class="cls-5" d="M54.56,70.33v8.2H58.2V72.16A31.73,31.73,0,0,0,54.56,70.33Z"/><ellipse class="cls-2" cx="39.45" cy="38.01" rx="23.63" ry="32.85"/><path class="cls-1" d="M39.45,5.16c-14.73,0-27,12.55-29.9,29.25h59.8C66.47,17.71,54.18,5.16,39.45,5.16Z"/><path class="cls-6" d="M62.17,29.57C62,27.21,61,21.65,55.39,15.76,50.7,10.81,43.59,10.12,41.81,10"/><path class="cls-7" d="M29,46c3.21,0,3.22-5,0-5s-3.23,5,0,5Z"/><path class="cls-7" d="M50.23,46.27c3.21,0,3.22-5,0-5s-3.23,5,0,5Z"/><path d="M39.45,63A3.24,3.24,0,0,1,42,64.47a5.25,5.25,0,0,0,2.06-3.82H34.8a5.26,5.26,0,0,0,2.07,3.82A3.22,3.22,0,0,1,39.45,63Z"/><path class="cls-8" d="M42,64.47a3,3,0,0,0-5.16,0,4.26,4.26,0,0,0,5.16,0Z"/><path class="cls-9" d="M36.69,54.52a.63.63,0,0,0,0-1.25.63.63,0,0,0,0,1.25Z"/><path class="cls-9" d="M41.81,54.52a.63.63,0,0,0,0-1.25.63.63,0,0,0,0,1.25Z"/><path class="cls-10" d="M31.22,39a4.07,4.07,0,0,0-3.36-.88,4,4,0,0,0-2.49,1.75"/><path class="cls-10" d="M47.87,39.13a4.06,4.06,0,0,1,3.36-.87A4,4,0,0,1,53.71,40"/><rect class="cls-5" x="24.28" y="75.36" width="30.28" height="3.13"/><path class="cls-11" d="M32.33,0h9a0,0,0,0,1,0,0V9a9,9,0,0,1-9,9h0a9,9,0,0,1-9-9V9a9,9,0,0,1,9-9Z" transform="translate(64.66 17.91) rotate(-180)"/><path class="cls-11" d="M20.22,17.91h-9a9,9,0,1,1,9-8.95Z"/><path class="cls-11" d="M9,21.66h9a0,0,0,0,1,0,0v9a9,9,0,0,1-9,9H9a9,9,0,0,1-9-9v0A9,9,0,0,1,9,21.66Z"/><path class="cls-12" d="M5,11.17A7.27,7.27,0,0,1,6.4,5.39,7.51,7.51,0,0,1,13,2.92"/><path class="cls-13" d="M21.56,24.17c3.22,0,3.23-5,0-5s-3.22,5,0,5Z"/><path class="cls-12" d="M30.84,2.85a7.23,7.23,0,0,1,5.69,1.67,7.54,7.54,0,0,1,2.12,6.73"/><path class="cls-12" d="M9.79,37a7.26,7.26,0,0,1-5.58-2,7.55,7.55,0,0,1-1.69-6.84"/></g></g></svg>