<svg xmlns="http://www.w3.org/2000/svg" viewBox="0 0 198.43 229.13"><defs><style>.cls-1,.cls-7{fill:#fff;}.cls-1{stroke:#ffed00;}.cls-1,.cls-10,.cls-5,.cls-6,.cls-9{stroke-miterlimit:10;}.cls-1,.cls-9{stroke-width:2px;}.cls-2{fill:#f29699;}.cls-3{fill:#f9b233;}.cls-4{fill:#f39200;}.cls-10,.cls-5,.cls-6,.cls-9{fill:none;}.cls-10,.cls-5,.cls-6{stroke:#fff;}.cls-5{stroke-width:8px;}.cls-6{stroke-width:6px;}.cls-7{opacity:0.33;}.cls-8{fill:#1d1d1b;}.cls-9{stroke:#1d1d1b;}.cls-10{stroke-width:10px;opacity:0.54;}</style></defs><title>Asset 8</title><g id="Layer_2" data-name="Layer 2"><g id="Layer_1-2" data-name="Layer 1"><polygon class="cls-1" points="197.43 171.27 197.43 57.86 99.22 1.16 1 57.86 1 171.27 99.22 227.97 197.43 171.27"/><polygon class="cls-1" points="193.35 168.91 193.35 60.21 99.22 5.86 5.08 60.21 5.08 168.91 99.22 223.27 193.35 168.91"/><path class="cls-2" d="M132.4,38.54h32.32a0,0,0,0,1,0,0V70.86a32.32,32.32,0,0,1-32.32,32.32h0a32.32,32.32,0,0,1-32.32-32.32v0A32.32,32.32,0,0,1,132.4,38.54Z" transform="translate(264.8 141.71) rotate(-180)"/><path class="cls-2" d="M66.48,38.54h0A32.32,32.32,0,0,1,98.8,70.86v32.32a0,0,0,0,1,0,0H66.48A32.32,32.32,0,0,1,34.16,70.86v0A32.32,32.32,0,0,1,66.48,38.54Z"/><path class="cls-3" d="M55.27,168.86H86.63v-66H55.27C36,102.82,20.21,120.43,20.21,142h0c0,.11,0,.22,0,.33a43.37,43.37,0,0,1,.48-6.08C23.48,154.67,38,168.86,55.27,168.86Z"/><path class="cls-3" d="M153,164.53V107.16a32,32,0,0,0-14.12-4.29v65.94A32,32,0,0,0,153,164.53Z"/><rect class="cls-3" x="105.72" y="102.82" width="14.12" height="66.05"/><rect class="cls-4" x="105.72" y="181.09" width="14.12" height="0.71"/><path class="cls-4" d="M55.27,181.09c-19.18,0-34.89-17.44-35.05-38.81,0,.13,0,.25,0,.38h0c0,21.52,15.78,39.13,35.06,39.13H86.63v-.7Z"/><path class="cls-4" d="M138.92,181v.71A32.07,32.07,0,0,0,153,177.46v-.71A32.07,32.07,0,0,1,138.92,181Z"/><path class="cls-4" d="M138.92,181A32.07,32.07,0,0,0,153,176.75V164.53a32,32,0,0,1-14.12,4.28Z"/><path class="cls-4" d="M55.27,181.09H86.63V168.86H55.27c-17.31,0-31.79-14.19-34.57-32.66a43.37,43.37,0,0,0-.48,6.08C20.38,163.65,36.09,181.09,55.27,181.09Z"/><rect class="cls-4" x="105.72" y="168.86" width="14.12" height="12.22"/><rect x="86.63" y="102.82" width="19.09" height="66.05"/><rect x="86.63" y="181.09" width="19.09" height="0.71"/><rect x="86.63" y="168.86" width="19.09" height="12.22"/><path d="M137.07,168.86c.62,0,1.24,0,1.85-.05V102.87c-.61,0-1.23-.05-1.85-.05H119.84v66Z"/><path d="M137.07,181.09H119.84v.7h17.23c.62,0,1.24,0,1.85,0V181C138.31,181.07,137.69,181.09,137.07,181.09Z"/><path d="M137.07,168.86H119.84v12.23h17.23c.62,0,1.24,0,1.85-.06V168.81C138.31,168.84,137.69,168.86,137.07,168.86Z"/><path d="M172.13,142.66V142c0,.11,0,.22,0,.33S172.13,142.53,172.13,142.66Z"/><path d="M153,107.16v57.37c9.66-5.57,16.74-16,18.6-28.33a41.92,41.92,0,0,1,.48,6.08c0-.11,0-.22,0-.33h0C172.13,126.84,164.35,113.67,153,107.16Z"/><path d="M153,176.75v.71c11.31-6.52,19.09-19.69,19.09-34.8h0c0-.13,0-.25,0-.38C172,157.25,164.27,170.28,153,176.75Z"/><path d="M172.12,142.28a41.92,41.92,0,0,0-.48-6.08c-1.86,12.34-8.94,22.76-18.6,28.33v12.22C164.27,170.28,172,157.25,172.12,142.28Z"/><path class="cls-5" d="M127.48,48.6h0"/><path class="cls-5" d="M150.37,78h0"/><path class="cls-6" d="M70.86,45.5h0"/><rect class="cls-7" x="58.39" y="114.56" width="87.08" height="10.38" rx="5.19"/><path class="cls-8" d="M46.66,144.81a5,5,0,1,0-5-5,5.06,5.06,0,0,0,5,5Z"/><line class="cls-9" x1="97.09" y1="173.45" x2="109.44" y2="185.39"/><line class="cls-9" x1="139.83" y1="187.22" x2="124.97" y2="169.87"/><path class="cls-4" d="M38.26,147.46c.24.26,4.6,5,10.55,3.84a11,11,0,0,0,6.24-3.84"/><path class="cls-10" d="M45.42,77.39h0A21.81,21.81,0,0,1,58.89,49.65h0A21.81,21.81,0,0,1,86.63,63.12"/><path class="cls-10" d="M111.79,60.49h0A21.8,21.8,0,0,1,141.12,51h0a21.81,21.81,0,0,1,9.5,29.34"/></g></g></svg>