<svg xmlns="http://www.w3.org/2000/svg" viewBox="0 0 118.02 136.28"><defs><style>.cls-1,.cls-14{fill:#fff;}.cls-1{stroke:#ffed00;stroke-width:2px;}.cls-1,.cls-11,.cls-13,.cls-7{stroke-miterlimit:10;}.cls-2{fill:#f9b233;}.cls-3{fill:#fee8cc;}.cls-4{fill:#a48a7b;}.cls-5{fill:#f6b6c0;}.cls-6{fill:#ee759c;}.cls-11,.cls-13,.cls-7{fill:none;}.cls-13,.cls-7{stroke:#fff;stroke-width:3px;}.cls-8{fill:#1d1d1b;}.cls-9{fill:#ed6e83;}.cls-10{fill:#cbbca0;}.cls-11{stroke:#1d1d1b;}.cls-12{fill:#f29699;}.cls-13{opacity:0.5;}</style></defs><title>Asset 9</title><g id="Layer_2" data-name="Layer 2"><g id="Layer_1-2" data-name="Layer 1"><polygon class="cls-1" points="117.02 101.63 117.02 34.65 59.01 1.16 1 34.65 1 101.63 59.01 135.13 117.02 101.63"/><polygon class="cls-1" points="114.61 100.24 114.61 36.04 59.01 3.94 3.41 36.04 3.41 100.24 59.01 132.35 114.61 100.24"/><rect class="cls-2" x="31.69" y="61.66" width="59.8" height="44.11"/><rect class="cls-3" x="34.92" y="68.14" width="5.3" height="5.3" rx="2.65"/><rect class="cls-4" x="35.84" y="68.96" width="3.89" height="3.89" rx="1.95" transform="translate(-26.29 119.37) rotate(-99.05)"/><rect class="cls-3" x="83.08" y="68.26" width="5.3" height="5.3" rx="2.65" transform="translate(171.46 141.81) rotate(180)"/><rect class="cls-4" x="83.57" y="69.07" width="3.89" height="3.89" rx="1.95" transform="translate(1.93 144.3) rotate(-80.95)"/><path class="cls-5" d="M35.42,105.78h7.36V99.44A26.25,26.25,0,0,0,35.42,105.78Z"/><path class="cls-5" d="M61.59,94.57a38.3,38.3,0,0,0-15.17,3v8.18H76.7V97.57A38.53,38.53,0,0,0,61.59,94.57Z"/><path class="cls-5" d="M80.34,99.41v6.37h7.42A26,26,0,0,0,80.34,99.41Z"/><path class="cls-6" d="M42.78,99.44v6.34h3.64V97.6A34.42,34.42,0,0,0,42.78,99.44Z"/><path class="cls-6" d="M76.7,97.57v8.21h3.64V99.41A33.48,33.48,0,0,0,76.7,97.57Z"/><ellipse class="cls-3" cx="61.59" cy="65.26" rx="23.63" ry="32.85"/><path class="cls-2" d="M61.59,32.41c-14.73,0-27,12.55-29.9,29.25h59.8C88.61,45,76.32,32.41,61.59,32.41Z"/><path class="cls-7" d="M84.31,56.82c-.19-2.36-1.19-7.92-6.78-13.81-4.69-4.95-11.8-5.64-13.58-5.76"/><path class="cls-8" d="M51.15,73.29c3.21,0,3.22-5,0-5s-3.23,5,0,5Z"/><path class="cls-8" d="M72.37,73.52c3.21,0,3.22-5,0-5s-3.23,5,0,5Z"/><path d="M61.59,90.24a3.21,3.21,0,0,1,2.58,1.48,5.3,5.3,0,0,0,2.07-3.82h-9.3A5.3,5.3,0,0,0,59,91.72,3.21,3.21,0,0,1,61.59,90.24Z"/><path class="cls-9" d="M64.17,91.72a3,3,0,0,0-5.16,0,4.26,4.26,0,0,0,5.16,0Z"/><path class="cls-10" d="M58.83,81.77a.63.63,0,0,0,0-1.25.63.63,0,0,0,0,1.25Z"/><path class="cls-10" d="M64,81.77a.63.63,0,0,0,0-1.25.63.63,0,0,0,0,1.25Z"/><path class="cls-11" d="M53.36,66.22A4.07,4.07,0,0,0,50,65.34a4,4,0,0,0-2.49,1.75"/><path class="cls-11" d="M70,66.38a4.07,4.07,0,0,1,3.36-.88,4,4,0,0,1,2.48,1.76"/><rect class="cls-6" x="46.42" y="102.61" width="30.28" height="3.13"/><path class="cls-12" d="M54.47,27.25h9a0,0,0,0,1,0,0v9a9,9,0,0,1-9,9h0a9,9,0,0,1-9-9v0a9,9,0,0,1,9-9Z" transform="translate(108.94 72.41) rotate(-180)"/><path class="cls-12" d="M42.36,45.16h-9a9,9,0,1,1,9-9Z"/><path class="cls-12" d="M31.1,48.91h9a0,0,0,0,1,0,0v9a9,9,0,0,1-9,9h0a9,9,0,0,1-9-9v0A9,9,0,0,1,31.1,48.91Z"/><path class="cls-13" d="M27.17,38.42a7.25,7.25,0,0,1,1.38-5.78,7.5,7.5,0,0,1,6.6-2.47"/><path class="cls-14" d="M43.71,51.41c3.21,0,3.22-5,0-5s-3.23,5,0,5Z"/><path class="cls-13" d="M53,30.1a7.23,7.23,0,0,1,5.69,1.67c2.92,2.62,2.16,6.56,2.13,6.73"/><path class="cls-13" d="M31.93,64.2a7.26,7.26,0,0,1-5.58-2,7.55,7.55,0,0,1-1.69-6.84"/></g></g></svg>