<svg xmlns="http://www.w3.org/2000/svg" viewBox="0 0 198.43 229.13"><defs><style>.cls-1,.cls-7{fill:#fff;}.cls-1{stroke:#ffed00;}.cls-1,.cls-10,.cls-5,.cls-6,.cls-9{stroke-miterlimit:10;}.cls-1,.cls-9{stroke-width:2px;}.cls-2{fill:#f29699;}.cls-3{fill:#f9b233;}.cls-4{fill:#f39200;}.cls-10,.cls-5,.cls-6,.cls-9{fill:none;}.cls-10,.cls-5,.cls-6{stroke:#fff;}.cls-5{stroke-width:8px;}.cls-6{stroke-width:6px;}.cls-7{opacity:0.33;}.cls-8{fill:#1d1d1b;}.cls-9{stroke:#1d1d1b;}.cls-10{stroke-width:10px;opacity:0.54;}</style></defs><title>Asset 11</title><g id="Layer_2" data-name="Layer 2"><g id="Layer_1-2" data-name="Layer 1"><polygon class="cls-1" points="197.43 171.27 197.43 57.86 99.22 1.16 1 57.86 1 171.27 99.22 227.97 197.43 171.27"/><polygon class="cls-1" points="193.35 168.91 193.35 60.21 99.22 5.86 5.08 60.21 5.08 168.91 99.22 223.27 193.35 168.91"/><path class="cls-2" d="M132.12,40.42h31.63a0,0,0,0,1,0,0V72a31.63,31.63,0,0,1-31.63,31.63h0A31.63,31.63,0,0,1,100.49,72v0a31.63,31.63,0,0,1,31.63-31.63Z" transform="translate(264.24 144.1) rotate(-180)"/><path class="cls-2" d="M67.6,40.42h0A31.63,31.63,0,0,1,99.23,72v31.63a0,0,0,0,1,0,0H67.6A31.63,31.63,0,0,1,36,72v0A31.63,31.63,0,0,1,67.6,40.42Z"/><path class="cls-3" d="M56.63,168H87.32V103.33H56.63c-18.87,0-34.32,17.24-34.32,38.31h0c0,.1,0,.21,0,.32a43.18,43.18,0,0,1,.47-6C25.52,154.08,39.69,168,56.63,168Z"/><path class="cls-3" d="M152.33,163.73V107.58a31.33,31.33,0,0,0-13.82-4.19v64.53A31.2,31.2,0,0,0,152.33,163.73Z"/><rect class="cls-3" x="106.01" y="103.33" width="13.82" height="64.65"/><rect class="cls-4" x="106.01" y="179.94" width="13.82" height="0.69"/><path class="cls-4" d="M56.63,179.94c-18.78,0-34.15-17.06-34.31-38,0,.12,0,.24,0,.37h0c0,21.07,15.45,38.3,34.32,38.3H87.32v-.69Z"/><path class="cls-4" d="M138.51,179.89v.69a31.33,31.33,0,0,0,13.82-4.19v-.69A31.33,31.33,0,0,1,138.51,179.89Z"/><path class="cls-4" d="M138.51,179.89a31.33,31.33,0,0,0,13.82-4.19v-12a31.2,31.2,0,0,1-13.82,4.19Z"/><path class="cls-4" d="M56.63,179.94H87.32V168H56.63c-16.94,0-31.11-13.9-33.84-32a43.18,43.18,0,0,0-.47,6C22.48,162.88,37.85,179.94,56.63,179.94Z"/><rect class="cls-4" x="106.01" y="167.98" width="13.82" height="11.96"/><rect x="87.32" y="103.33" width="18.68" height="64.65"/><rect x="87.32" y="179.94" width="18.68" height="0.69"/><rect x="87.32" y="167.98" width="18.68" height="11.96"/><path d="M136.7,168c.61,0,1.21,0,1.81-.06V103.39c-.6,0-1.2-.06-1.81-.06H119.83V168Z"/><path d="M136.7,179.94H119.83v.69H136.7c.61,0,1.21,0,1.81,0v-.69C137.91,179.92,137.31,179.94,136.7,179.94Z"/><path d="M136.7,168H119.83v12H136.7c.61,0,1.21,0,1.81-.05v-12C137.91,168,137.31,168,136.7,168Z"/><path d="M171,142.33v0Z"/><path d="M152.33,107.58v56.15c9.45-5.44,16.38-15.65,18.2-27.73a41.67,41.67,0,0,1,.48,6v-.32h0C171,126.85,163.4,114,152.33,107.58Z"/><path d="M152.33,175.7v.69C163.4,170,171,157.12,171,142.33h0V142C170.9,156.61,163.32,169.37,152.33,175.7Z"/><path d="M171,142a41.67,41.67,0,0,0-.48-6c-1.82,12.08-8.75,22.29-18.2,27.73v12C163.32,169.37,170.9,156.61,171,142Z"/><path class="cls-5" d="M127.31,50.26h0"/><path class="cls-5" d="M149.71,79.07h0"/><path class="cls-6" d="M71.89,47.23h0"/><rect class="cls-7" x="59.68" y="114.83" width="85.24" height="10.16" rx="5.08"/><path class="cls-8" d="M48.2,144.54a5,5,0,1,0-5-5,5.06,5.06,0,0,0,5,5Z"/><line class="cls-9" x1="97.56" y1="172.47" x2="109.65" y2="184.15"/><line class="cls-9" x1="139.4" y1="185.95" x2="124.85" y2="168.97"/><path class="cls-4" d="M40,147c.23.26,4.5,4.9,10.33,3.75a10.68,10.68,0,0,0,6.1-3.75"/><path class="cls-10" d="M47,78.44h0A21.35,21.35,0,0,1,60.17,51.29h0A21.35,21.35,0,0,1,87.32,64.48"/><path class="cls-10" d="M112,61.9h0a21.34,21.34,0,0,1,28.71-9.3h0A21.35,21.35,0,0,1,150,81.32"/></g></g></svg>