<svg xmlns="http://www.w3.org/2000/svg" viewBox="0 0 118.02 136.28"><defs><style>.cls-1,.cls-14{fill:#fff;}.cls-1{stroke:#ffed00;stroke-width:2px;}.cls-1,.cls-11,.cls-13,.cls-7{stroke-miterlimit:10;}.cls-2{fill:#f9b233;}.cls-3{fill:#fee8cc;}.cls-4{fill:#a48a7b;}.cls-5{fill:#f6b6c0;}.cls-6{fill:#ee759c;}.cls-11,.cls-13,.cls-7{fill:none;}.cls-13,.cls-7{stroke:#fff;stroke-width:3px;}.cls-8{fill:#1d1d1b;}.cls-9{fill:#ed6e83;}.cls-10{fill:#cbbca0;}.cls-11{stroke:#1d1d1b;}.cls-12{fill:#f29699;}.cls-13{opacity:0.5;}</style></defs><title>Asset 10</title><g id="Layer_2" data-name="Layer 2"><g id="Layer_1-2" data-name="Layer 1"><polygon class="cls-1" points="117.02 101.63 117.02 34.65 59.01 1.16 1 34.65 1 101.63 59.01 135.13 117.02 101.63"/><polygon class="cls-1" points="114.61 100.24 114.61 36.04 59.01 3.94 3.41 36.04 3.41 100.24 59.01 132.35 114.61 100.24"/><rect class="cls-2" x="29.81" y="61.76" width="64.75" height="47.77"/><rect class="cls-3" x="33.3" y="68.78" width="5.73" height="5.73" rx="2.65"/><rect class="cls-4" x="34.3" y="69.66" width="4.21" height="4.21" rx="1.95" transform="translate(-28.74 119.01) rotate(-99.05)"/><rect class="cls-3" x="85.46" y="68.9" width="5.73" height="5.73" rx="2.65" transform="translate(176.66 143.54) rotate(-180)"/><rect class="cls-4" x="85.98" y="69.79" width="4.21" height="4.21" rx="1.95" transform="translate(3.24 147.58) rotate(-80.95)"/><path class="cls-5" d="M33.85,109.53h8v-6.85A28.15,28.15,0,0,0,33.85,109.53Z"/><path class="cls-5" d="M62.18,97.4a41.57,41.57,0,0,0-16.42,3.27v8.86H78.55v-8.88A41.53,41.53,0,0,0,62.18,97.4Z"/><path class="cls-5" d="M82.49,102.64v6.89h8A28.24,28.24,0,0,0,82.49,102.64Z"/><path class="cls-6" d="M41.82,102.68v6.85h3.94v-8.86A34.66,34.66,0,0,0,41.82,102.68Z"/><path class="cls-6" d="M78.55,100.65v8.88h3.94v-6.89A34.56,34.56,0,0,0,78.55,100.65Z"/><ellipse class="cls-3" cx="62.18" cy="65.65" rx="25.59" ry="35.57"/><path class="cls-2" d="M62.18,30.08c-16,0-29.26,13.6-32.37,31.68H94.56C91.45,43.68,78.14,30.08,62.18,30.08Z"/><path class="cls-7" d="M86.79,56.51c-.2-2.55-1.29-8.57-7.34-14.95-5.08-5.36-12.78-6.11-14.71-6.23"/><path class="cls-8" d="M50.88,74.14c3.21,0,3.22-5,0-5s-3.23,5,0,5Z"/><path class="cls-8" d="M73.85,74.39c3.22,0,3.23-5,0-5s-3.22,5,0,5Z"/><path d="M62.18,92.71a3.51,3.51,0,0,1,2.8,1.6,5.72,5.72,0,0,0,2.24-4.14H57.15a5.72,5.72,0,0,0,2.24,4.14A3.49,3.49,0,0,1,62.18,92.71Z"/><path class="cls-9" d="M65,94.31a3.24,3.24,0,0,0-5.59,0,4.63,4.63,0,0,0,5.59,0Z"/><path class="cls-10" d="M59.19,83.49a.63.63,0,0,0,0-1.25.63.63,0,0,0,0,1.25Z"/><path class="cls-10" d="M64.74,83.49a.63.63,0,0,0,0-1.25.63.63,0,0,0,0,1.25Z"/><path class="cls-11" d="M53.27,66.69a4.41,4.41,0,0,0-3.64-1,4.33,4.33,0,0,0-2.69,1.9"/><path class="cls-11" d="M71.3,66.87a4.43,4.43,0,0,1,3.64-1,4.33,4.33,0,0,1,2.69,1.9"/><rect class="cls-6" x="45.76" y="106.1" width="32.79" height="3.39"/><path class="cls-12" d="M53.73,24.49H64.17a0,0,0,0,1,0,0V34.93a9,9,0,0,1-9,9H53.73a9,9,0,0,1-9-9V33.45a9,9,0,0,1,9-9Z" transform="translate(108.95 68.38) rotate(180)"/><path class="cls-12" d="M41.36,43.89h-9.7a9.7,9.7,0,1,1,9.7-9.7Z"/><path class="cls-12" d="M28.42,48H38.86a0,0,0,0,1,0,0V58.39a9,9,0,0,1-9,9H28.42a9,9,0,0,1-9-9V56.91A9,9,0,0,1,28.42,48Z"/><path class="cls-13" d="M24.91,36.59a7.85,7.85,0,0,1,1.49-6.26c2.67-3.3,7-2.71,7.15-2.68"/><path class="cls-14" d="M42.82,50.45c3.21,0,3.22-5,0-5s-3.23,5,0,5Z"/><path class="cls-13" d="M52.86,27.58A7.85,7.85,0,0,1,59,29.39c3.15,2.84,2.33,7.1,2.3,7.28"/><path class="cls-13" d="M30.06,64.51a7.89,7.89,0,0,1-6-2.21c-3-3-1.88-7.23-1.83-7.41"/></g></g></svg>